# xmcd
#
# Track frame offsets: 
#        150
#        15149
#        36047
#        53926
#        76588
#        94682
#        128615
#        143807
#        167596
#        184640
#        217232
#        236575
#        260899
#        275483
#        295795
#        309448
#        342171
#
# Disc length: 4795 seconds
#
# Revision: 1
# Processed by: cddbd v1.5.2PL0 Copyright (c) Steve Scherf et al.
# Submitted via: ExactAudioCopy v1.3
#
DISCID=e712b911
DTITLE=Various Artist - Akella Presents - vol.51 - Modern Electric Bl
DTITLE=ues - 2015  CD1
DYEAR=2015
DGENRE=Blues
TTITLE0=Snowy White - Black Magic Woman
TTITLE1=Tony Joe White - Across From Midnight
TTITLE2=John Mayall - All Those Heroes
TTITLE3=Toscho - All My Tears Went By
TTITLE4=Scott Ellison - The Man Who Shot Mustang Sally
TTITLE5=Big Mike Griffin - Baby Won't Ride
TTITLE6=Watermelon Slim - The Bloody Burmese Blues
TTITLE7=Eric Clapton and Friends - Sensitive Kind
TTITLE8=Rick Vito - Desiree
TTITLE9=Mike Morgan and The Crawl - Five Thoiusand Miles From Home
TTITLE10=Kevin Selfe - Mama Didn't Raise No Fool
TTITLE11=Mike Zito and The Wheel - I Never Knew A Hurricane
TTITLE12=The Moochers - Until My Baby Comes Along
TTITLE13=Vargas Blues Band - Back To The City
TTITLE14=Working Blues Band - China
TTITLE15=Dave Nevling - Lenora
TTITLE16=Chris Bergson Band - Hello Bertha
EXTD=
EXTT0=
EXTT1=
EXTT2=
EXTT3=
EXTT4=
EXTT5=
EXTT6=
EXTT7=
EXTT8=
EXTT9=
EXTT10=
EXTT11=
EXTT12=
EXTT13=
EXTT14=
EXTT15=
EXTT16=
PLAYORDER=
